<?xml version="1.0" standalone="no"?>
<!DOCTYPE svg PUBLIC "-//W3C//DTD SVG 20010904//EN"
 "http://www.w3.org/TR/2001/REC-SVG-20010904/DTD/svg10.dtd">
<svg version="1.0" xmlns="http://www.w3.org/2000/svg"
 width="782.000000pt" height="782.000000pt" viewBox="0 0 782.000000 782.000000"
 preserveAspectRatio="xMidYMid meet">
<metadata>
Created by potrace 1.11, written by Peter Selinger 2001-2013
</metadata>
<g transform="translate(0.000000,782.000000) scale(0.100000,-0.100000)"
fill="#000000" stroke="none">
<path d="M0 3910 l0 -3910 3910 0 3910 0 0 3910 0 3910 -3910 0 -3910 0 0
-3910z m1732 639 c34 -11 75 -30 91 -41 27 -19 28 -24 23 -72 -3 -28 -8 -81
-12 -118 l-6 -66 -67 34 c-79 40 -138 53 -277 58 -106 4 -151 -4 -228 -40 -64
-31 -54 -39 44 -37 50 1 89 -1 87 -5 -43 -84 -56 -148 -45 -212 18 -100 98
-164 200 -158 50 3 53 5 56 31 3 27 3 27 -57 27 -54 0 -60 2 -63 23 -6 39 12
161 25 169 7 4 89 8 184 8 196 0 183 7 172 -95 -4 -33 -10 -96 -13 -140 -11
-140 -10 -137 -86 -183 -85 -51 -155 -72 -240 -72 -120 0 -225 39 -311 117
-145 131 -160 396 -33 580 116 169 368 256 556 192z m768 -17 c0 -16 -7 -98
-15 -183 -40 -425 -40 -428 28 -469 57 -35 125 -19 165 37 22 32 29 60 37 158
3 39 8 86 10 105 3 19 7 71 10 115 4 44 11 118 16 165 5 47 9 88 9 93 0 4 57
7 126 7 l127 0 -7 -74 c-31 -356 -45 -468 -62 -495 -26 -41 -66 -81 -99 -99
l-30 -15 33 -14 c17 -7 32 -18 32 -23 0 -25 -97 -112 -159 -143 -60 -29 -74
-32 -161 -32 -88 0 -101 3 -162 33 -67 33 -123 86 -156 147 -23 44 -40 126
-37 176 7 98 17 226 20 254 2 17 7 68 11 115 4 47 8 92 10 100 1 8 3 27 3 43
l1 27 125 0 125 0 0 -28z m1126 -49 c-4 -43 -9 -98 -11 -123 -4 -42 -29 -313
-40 -440 -12 -134 -17 -197 -20 -220 l-2 -25 -127 -3 -128 -3 6 53 c3 29 11
107 16 173 6 66 12 143 15 170 2 28 11 131 20 230 9 99 18 199 21 223 l5 42
126 0 126 0 -7 -77z m636 72 c2 -3 1 -33 -3 -67 -9 -79 -17 -193 -25 -327 -3
-58 -7 -108 -9 -111 -2 -3 -7 -40 -10 -81 -4 -40 -8 -84 -10 -96 -2 -12 -7
-62 -10 -112 l-8 -91 -123 0 c-120 0 -127 2 -126 30 1 34 29 365 37 440 7 64
35 382 35 403 0 15 13 17 123 17 68 0 126 -2 129 -5z m508 -3 c0 -10 -28 -341
-34 -402 -9 -88 -36 -396 -39 -435 l-2 -40 -128 -3 c-116 -2 -127 -1 -127 15
0 10 7 83 15 163 8 80 15 151 15 158 0 9 -28 12 -109 12 -61 0 -112 4 -115 9
-3 5 0 45 6 89 l12 80 35 6 c20 3 71 6 114 6 l77 0 1 38 c1 20 3 46 4 57 1 11
6 61 10 110 5 50 9 99 11 110 1 11 3 23 3 28 1 10 251 9 251 -1z m1916 -84
c-4 -51 -9 -106 -11 -123 -2 -16 -7 -64 -10 -105 -3 -41 -8 -93 -10 -115 -2
-22 -11 -123 -20 -225 -9 -102 -18 -195 -21 -207 -4 -22 -8 -23 -130 -23
l-125 0 5 53 c9 83 44 464 51 557 4 47 8 96 10 110 2 14 6 58 10 98 l7 72 125
0 126 0 -7 -92z"/>
</g>
</svg>
